<svg width="115" height="115" viewBox="0 0 115 115" fill="none" xmlns="http://www.w3.org/2000/svg">
<path d="M93.4375 14.375H21.5625C19.6563 14.375 17.8281 15.1323 16.4802 16.4802C15.1323 17.8281 14.375 19.6563 14.375 21.5625V93.4375C14.375 95.3437 15.1323 97.1719 16.4802 98.5198C17.8281 99.8677 19.6563 100.625 21.5625 100.625H93.4375C95.3437 100.625 97.1719 99.8677 98.5198 98.5198C99.8677 97.1719 100.625 95.3437 100.625 93.4375V21.5625C100.625 19.6563 99.8677 17.8281 98.5198 16.4802C97.1719 15.1323 95.3437 14.375 93.4375 14.375Z" stroke="#38090C" stroke-width="9.58333"/>
<path d="M33.542 79.0625L47.917 35.9375L62.292 79.0625M76.667 79.0625V59.8958M76.667 47.9167V45.5208M38.3337 64.6875H57.5003" stroke="#FF9C08" stroke-width="9.58333" stroke-linecap="round" stroke-linejoin="round"/>
</svg>
