<svg width="115" height="115" viewBox="0 0 115 115" fill="none" xmlns="http://www.w3.org/2000/svg">
<path d="M80.1718 5.26131H73.5378L80.4369 12.748V16.3121H66.2272V12.1388H73.1254L66.2272 4.65217V1.08447H80.1718V5.26131ZM63.4097 5.26131H56.7756L63.6747 12.748V16.3121H49.4641V12.1388H56.3632L49.4641 4.65217V1.08447H63.4097V5.26131ZM46.812 5.43201H39.6532V11.9646H46.812V16.3121H34.5645V1.08447H46.812V5.43201Z" fill="white"/>
<path d="M24.8088 104.853L17.5342 23.2632H97.4655L90.1845 104.84L57.4509 113.916L24.8088 104.853Z" fill="#1572B6"/>
<path d="M57.501 106.979L83.9501 99.6457L90.1727 29.9351H57.501V106.979Z" fill="#33A9DC"/>
<path d="M57.5 59.4947H70.7412L71.6567 49.248H57.5V39.2412H82.5925L82.3526 41.9257L79.8936 69.5006H57.5V59.4947Z" fill="white"/>
<path d="M57.5605 85.4829L57.5164 85.4955L46.3722 82.4857L45.6589 74.5049H35.6152L37.0177 90.2168L57.5146 95.9066L57.5614 95.8931L57.5605 85.4829Z" fill="#EBEBEB"/>
<path d="M69.8915 69.0774L68.6858 82.4785L57.5254 85.4909V95.902L78.0394 90.2167L78.1904 88.5259L79.9315 69.0774H69.8915Z" fill="white"/>
<path d="M57.5351 39.2412V49.2471H33.3644L33.1632 46.9983L32.7077 41.9257L32.4678 39.2412H57.5351ZM57.5 59.4956V69.5024H46.4969L46.2965 67.2536L45.8401 62.1801L45.6002 59.4956H57.5Z" fill="#EBEBEB"/>
</svg>
