<svg width="115" height="115" viewBox="0 0 115 115" fill="none" xmlns="http://www.w3.org/2000/svg">
<g clip-path="url(#clip0_21_116)">
<path d="M88.0469 0H26.9531C12.0673 0 0 12.0673 0 26.9531V88.0469C0 102.933 12.0673 115 26.9531 115H88.0469C102.933 115 115 102.933 115 88.0469V26.9531C115 12.0673 102.933 0 88.0469 0Z" fill="#F4F2ED"/>
<mask id="mask0_21_116" style="mask-type:luminance" maskUnits="userSpaceOnUse" x="27" y="12" width="61" height="91">
<path d="M27.4023 12.5781H87.3102V102.422H27.4023V12.5781Z" fill="white"/>
</mask>
<g mask="url(#mask0_21_116)">
<path d="M42.3825 102.422C50.6481 102.422 57.3563 95.7138 57.3563 87.4481V72.4739H42.3825C34.1168 72.4739 27.4082 79.1825 27.4082 87.4481C27.4082 95.7138 34.1168 102.422 42.3825 102.422Z" fill="#0ACF83"/>
<path d="M27.4082 57.4999C27.4082 49.2343 34.1168 42.5261 42.3825 42.5261H57.3563V72.4737H42.3825C34.1168 72.4737 27.4082 65.7656 27.4082 57.4999Z" fill="#A259FF"/>
<path d="M27.4082 27.5519C27.4082 19.2863 34.1168 12.5781 42.3825 12.5781H57.3563V42.5262H42.3825C34.1168 42.5262 27.4082 35.8176 27.4082 27.5519Z" fill="#F24E1E"/>
<path d="M57.3564 12.5781H72.3303C80.5959 12.5781 87.3045 19.2863 87.3045 27.5519C87.3045 35.8176 80.5959 42.5262 72.3303 42.5262H57.3564V12.5781Z" fill="#FF7262"/>
<path d="M87.3045 57.4999C87.3045 65.7656 80.5959 72.4737 72.3303 72.4737C64.0646 72.4737 57.3564 65.7656 57.3564 57.4999C57.3564 49.2343 64.0646 42.5261 72.3303 42.5261C80.5959 42.5261 87.3045 49.2343 87.3045 57.4999Z" fill="#1ABCFE"/>
</g>
</g>
<defs>
<clipPath id="clip0_21_116">
<rect width="115" height="115" fill="white"/>
</clipPath>
</defs>
</svg>
