<svg width="115" height="115" viewBox="0 0 115 115" fill="none" xmlns="http://www.w3.org/2000/svg">
<g clip-path="url(#clip0_21_31)">
<mask id="mask0_21_31" style="mask-type:luminance" maskUnits="userSpaceOnUse" x="0" y="0" width="115" height="115">
<path d="M0 0H115V115H0V0Z" fill="white"/>
</mask>
<g mask="url(#mask0_21_31)">
<path fill-rule="evenodd" clip-rule="evenodd" d="M57.5 0C25.7312 0 0 25.7312 0 57.5C0 82.9437 16.4594 104.434 39.3156 112.053C42.1906 112.556 43.2687 110.831 43.2687 109.322C43.2687 107.956 43.1969 103.428 43.1969 98.6125C28.75 101.272 25.0125 95.0906 23.8625 91.8562C23.2156 90.2031 20.4125 85.1 17.9687 83.7344C15.9562 82.6562 13.0812 79.9969 17.8969 79.925C22.425 79.8531 25.6594 84.0937 26.7375 85.8187C31.9125 94.5156 40.1781 92.0719 43.4844 90.5625C43.9875 86.825 45.4969 84.3094 47.15 82.8719C34.3562 81.4344 20.9875 76.475 20.9875 54.4812C20.9875 48.2281 23.2156 43.0531 26.8812 39.0281C26.3062 37.5906 24.2937 31.6969 27.4562 23.7906C27.4562 23.7906 32.2719 22.2813 43.2687 29.6844C47.8687 28.3906 52.7562 27.7437 57.6437 27.7437C62.5312 27.7437 67.4187 28.3906 72.0187 29.6844C83.0156 22.2094 87.8312 23.7906 87.8312 23.7906C90.9937 31.6969 88.9813 37.5906 88.4063 39.0281C92.0719 43.0531 94.3 48.1562 94.3 54.4812C94.3 76.5469 80.8594 81.4344 68.0656 82.8719C70.15 84.6687 71.9469 88.1187 71.9469 93.5094C71.9469 101.2 71.875 107.381 71.875 109.322C71.875 110.831 72.9531 112.628 75.8281 112.053C87.2427 108.199 97.1615 100.863 104.188 91.077C111.215 81.2909 114.997 69.5476 115 57.5C115 25.7312 89.2687 0 57.5 0Z" fill="white"/>
</g>
</g>
<defs>
<clipPath id="clip0_21_31">
<rect width="115" height="115" fill="white"/>
</clipPath>
</defs>
</svg>
