<svg width="115" height="115" viewBox="0 0 115 115" fill="none" xmlns="http://www.w3.org/2000/svg">
<path d="M25.025 104.537L17.7988 23.4878H97.2009L89.9676 104.524L57.4514 113.538L25.025 104.537Z" fill="#E44D26"/>
<path d="M57.5 106.648L83.7739 99.3635L89.9561 30.1155H57.5V106.648Z" fill="#F16529"/>
<path d="M57.4996 60.1754H44.3455L43.4381 49.9952H57.4996V40.0549H32.5742L32.8114 42.7224L35.2552 70.1149H57.4996V60.1754ZM57.4996 85.9902L57.4555 86.0019L46.3859 83.0119L45.6779 75.085H35.699L37.0916 90.6927L57.4538 96.3456L57.4996 96.3322V85.9902Z" fill="#EBEBEB"/>
<path d="M25.1865 1.46167H30.2375V6.45339H34.8591V1.46167H39.911V16.5752H34.8591V11.5143H30.2384V16.5752H25.1865V1.46167ZM46.5532 6.47405H42.1059V1.46167H56.0541V6.47405H51.6051V16.5752H46.5532V6.47405ZM58.2679 1.46167H63.5345L66.7752 6.77233L70.0123 1.46167H75.2816V16.5752H70.2495V9.08401L66.7752 14.4576H66.6871L63.2102 9.08401V16.5752H58.267V1.46167H58.2679ZM77.7963 1.46167H82.8491V11.5799H89.9531V16.5761H77.7963V1.46167Z" fill="white"/>
<path d="M57.4658 60.1754V70.1149H69.7061L68.5525 83.0065L57.4658 85.9992V96.3402L77.8442 90.6927L77.9933 89.0126L80.3293 62.8438L80.5718 60.1754H77.8927H57.4658ZM57.4658 40.0549V49.9952H81.4766L81.6751 47.7608L82.1288 42.7224L82.3669 40.0549H57.4658Z" fill="white"/>
</svg>
