<svg width="115" height="115" viewBox="0 0 115 115" fill="none" xmlns="http://www.w3.org/2000/svg">
<path d="M47.2402 60.9295C47.2402 60.9295 44.2898 62.6464 49.3435 63.2268C55.4654 63.9258 58.5947 63.8252 65.3402 62.5503C65.3402 62.5503 67.1182 63.6616 69.5943 64.6248C54.4682 71.1052 35.3602 64.2492 47.2402 60.9295ZM45.3904 52.4707C45.3904 52.4707 42.0805 54.9225 47.1378 55.4454C53.6784 56.1202 58.8418 56.1759 67.783 54.4545C67.783 54.4545 69.0166 55.7087 70.9599 56.3924C52.6749 61.7417 32.3082 56.8138 45.3904 52.4707Z" fill="#0074BD"/>
<path d="M60.9721 38.1217C64.7015 42.4144 59.9946 46.2741 59.9946 46.2741C59.9946 46.2741 69.4579 41.3893 65.1121 35.27C61.0521 29.5658 57.9408 26.7331 74.7892 16.9617C74.7892 16.9617 48.341 23.5652 60.9721 38.1217Z" fill="#EA2D2E"/>
<path d="M80.9781 67.1861C80.9781 67.1861 83.1631 68.9875 78.5721 70.3801C69.8428 73.0242 42.2356 73.822 34.5675 70.4852C31.8129 69.2858 36.9816 67.6219 38.6069 67.2724C40.3022 66.9049 41.2707 66.9723 41.2707 66.9723C38.2053 64.8134 21.4557 71.212 32.7634 73.0475C63.6014 78.0455 88.976 70.796 80.9781 67.1861ZM48.6613 43.7064C48.6613 43.7064 34.6196 47.0423 43.6893 48.2551C47.5203 48.7673 55.1516 48.6496 62.2654 48.053C68.0774 47.5652 73.9101 46.5221 73.9101 46.5221C73.9101 46.5221 71.8625 47.4007 70.3792 48.4124C56.1174 52.1634 28.5722 50.4159 36.5027 46.5814C43.2078 43.3371 48.6613 43.7064 48.6613 43.7064ZM73.8517 57.7849C88.348 50.2542 81.6447 43.0164 76.9665 43.9912C75.8228 44.2302 75.3089 44.4368 75.3089 44.4368C75.3089 44.4368 75.7357 43.7684 76.547 43.4818C85.8027 40.2294 92.9192 53.078 73.5624 58.1667C73.5624 58.1667 73.7843 57.9655 73.8517 57.7849Z" fill="#0074BD"/>
<path d="M65.1135 1.17969C65.1135 1.17969 73.141 9.21082 57.4983 21.558C44.9543 31.4651 54.6377 37.1127 57.4929 43.568C50.1707 36.9609 44.7998 31.1444 48.4025 25.7322C53.6934 17.7882 68.3514 13.9348 65.1135 1.17969Z" fill="#EA2D2E"/>
<path d="M50.0863 78.1992C63.9977 79.0887 85.367 77.7042 85.8729 71.1213C85.8729 71.1213 84.9007 73.6163 74.3737 75.5965C62.4982 77.8318 47.8492 77.5721 39.1631 76.1382C39.1631 76.1382 40.942 77.6116 50.0863 78.1992Z" fill="#0074BD"/>
<path d="M85.2309 90.0064H84.8068V89.7692H85.9478V90.0064H85.5255V91.1896H85.23L85.2309 90.0064ZM87.5084 90.0657H87.503L87.0825 91.1896H86.8885L86.4707 90.0657H86.4662V91.1896H86.1859V89.7692H86.5965L86.9837 90.7746L87.3718 89.7692H87.7797V91.1896H87.5084V90.0657ZM47.8064 103.354C46.4947 104.491 45.1075 105.131 43.8614 105.131C42.0879 105.131 41.1257 104.065 41.1257 102.359C41.1257 100.513 42.1553 99.1606 46.2809 99.1606H47.8055L47.8064 103.354ZM51.428 107.44V94.7924C51.428 91.5589 49.5836 89.426 45.1417 89.426C42.5488 89.426 40.2757 90.0675 38.4277 90.8833L38.9595 93.1231C40.415 92.5885 42.2972 92.0926 44.1444 92.0926C46.705 92.0926 47.8055 93.1231 47.8055 95.256V96.8543H46.5262C40.3081 96.8543 37.5023 99.2666 37.5023 102.894C37.5023 106.02 39.3512 107.796 42.8327 107.796C45.0698 107.796 46.7418 106.873 48.3024 105.521L48.5863 107.441L51.428 107.44ZM63.5138 107.44H58.9974L53.5609 89.7503H57.506L60.8805 100.621L61.6307 103.886C63.3341 99.1624 64.5416 94.3665 65.1454 89.7512H68.9826C67.9557 95.574 66.1049 101.968 63.5138 107.44ZM80.8429 103.354C79.5267 104.491 78.1386 105.131 76.897 105.131C75.1216 105.131 74.1603 104.065 74.1603 102.359C74.1603 100.513 75.1926 99.1606 79.3138 99.1606H80.842L80.8429 103.354ZM84.4663 107.44V94.7924C84.4663 91.5589 82.6164 89.426 78.1781 89.426C75.5825 89.426 73.3104 90.0675 71.4623 90.8833L71.9951 93.1231C73.4506 92.5885 75.3355 92.0926 77.1827 92.0926C79.7396 92.0926 80.8429 93.1231 80.8429 95.256V96.8543H79.5635C73.3436 96.8543 70.5387 99.2666 70.5387 102.894C70.5387 106.02 72.3859 107.796 75.8664 107.796C78.1045 107.796 79.7737 106.873 81.3388 105.521L81.6245 107.441L84.4663 107.44ZM33.5312 110.446C32.5007 111.954 30.8314 113.148 29.0057 113.821L27.2188 111.714C28.6086 111.001 29.7991 109.85 30.3534 108.777C30.8314 107.822 31.0299 106.594 31.0299 103.655V83.4568H34.8788V103.378C34.8788 107.309 34.5662 108.898 33.5312 110.446Z" fill="#EA2D2E"/>
</svg>
