<svg width="115" height="115" viewBox="0 0 115 115" fill="none" xmlns="http://www.w3.org/2000/svg">
<path d="M14.375 14.375H100.625V100.625H14.375V14.375ZM93.5573 80.0544C92.9296 76.1204 90.366 72.8142 82.7665 69.7283C80.1215 68.4873 77.1842 67.6296 76.3025 65.6362C75.9767 64.4479 75.9287 63.8058 76.1396 63.1015C76.681 60.7823 79.4315 60.0875 81.5877 60.7296C82.9917 61.1608 84.2854 62.239 85.0952 63.9688C88.8088 61.5394 88.8088 61.5394 91.401 59.9246C90.4283 58.42 89.9444 57.7635 89.2975 57.1167C87.031 54.5867 84.0123 53.2929 79.1104 53.4031L76.5804 53.7242C74.151 54.3183 71.8319 55.6169 70.4327 57.3371C66.3358 61.9754 67.5194 70.059 72.4788 73.4083C77.3806 77.074 84.5585 77.879 85.4737 81.329C86.3362 85.536 82.3496 86.8825 78.406 86.3985C75.4975 85.7469 73.8779 84.295 72.1002 81.5973L65.526 85.3731C66.2783 87.0933 67.1408 87.8504 68.4346 89.3598C74.6877 95.6656 90.3229 95.3446 93.126 85.7469C93.2267 85.4258 93.9885 83.2169 93.3944 79.8196L93.5573 80.0544ZM61.2758 54.0165H53.1971C53.1971 60.9787 53.1635 67.9027 53.1635 74.8794C53.1635 79.3069 53.3887 83.3702 52.6652 84.6208C51.4817 87.0981 48.4198 86.7819 47.035 86.341C45.6119 85.6415 44.8883 84.6687 44.0498 83.2696C43.8246 82.8958 43.6569 82.57 43.5946 82.57L37.0396 86.6142C38.1369 88.8806 39.7373 90.826 41.8025 92.0623C44.874 93.8975 48.9996 94.4917 53.3217 93.5237C56.1392 92.7092 58.5685 91.0369 59.8287 88.4494C61.6687 85.1096 61.2758 81.0079 61.2615 76.4271C61.2998 69.0431 61.2615 61.6544 61.2615 54.2177L61.2758 54.0165Z" fill="#DAD100"/>
</svg>
