<svg width="115" height="115" viewBox="0 0 115 115" fill="none" xmlns="http://www.w3.org/2000/svg">
<path d="M65.8376 20.2688C61.8126 15.4772 58.3147 10.6855 57.6439 9.63135H57.5001C56.8293 10.6376 53.3314 15.4772 49.3064 20.2688C14.8064 64.3043 54.7689 94.0126 54.7689 94.0126L55.1043 94.2522C55.3918 98.8043 56.1584 105.417 56.1584 105.417H59.1293C59.1293 105.417 59.848 98.8522 60.1355 94.2522L60.4709 93.9647C60.4709 93.9647 100.338 64.3043 65.8376 20.2688ZM57.5001 93.3418C56.6603 92.6519 55.89 91.8815 55.2001 91.0418L57.5001 43.1251L59.6564 91.0418C59.0099 91.8732 58.2881 92.6431 57.5001 93.3418Z" fill="#55AD47"/>
</svg>
