<svg width="115" height="115" viewBox="0 0 115 115" fill="none" xmlns="http://www.w3.org/2000/svg">
<g clip-path="url(#clip0_21_95)">
<mask id="mask0_21_95" style="mask-type:luminance" maskUnits="userSpaceOnUse" x="0" y="0" width="115" height="115">
<path d="M0 0H115V115H0V0Z" fill="white"/>
</mask>
<g mask="url(#mask0_21_95)">
<path d="M53.7337 0.029349C53.4846 0.0533073 52.6988 0.134766 51.9896 0.187474C35.6596 1.66331 20.3646 10.4752 10.6662 24.0212C5.31061 31.4566 1.82908 40.0749 0.5175 49.1439C0.0575 52.3064 0 53.236 0 57.5198C0 61.8035 0.0575 62.7379 0.5175 65.8956C3.64167 87.4916 19.0133 105.633 39.8523 112.356C43.585 113.558 47.519 114.378 51.9896 114.876C53.7338 115.068 61.2662 115.068 63.0104 114.876C70.7298 114.018 77.2752 112.106 83.7248 108.815C84.7167 108.311 84.9083 108.172 84.7742 108.062C81.6193 103.902 78.4967 99.7169 75.4065 95.5081L66.2112 83.0833L54.6921 66.0298C50.8593 60.3258 46.9908 54.646 43.0867 48.9906C43.0435 48.9762 43.0004 56.5518 42.9765 65.8093C42.9429 82.0052 42.9285 82.6569 42.7273 83.0402C42.531 83.4876 42.1808 83.8497 41.7402 84.0608C41.3808 84.2429 41.0694 84.2764 39.3683 84.2764H37.4229L36.9054 83.9506C36.5852 83.7484 36.3253 83.4637 36.1531 83.1264L35.9135 82.6233L35.9375 60.0833L35.971 37.5337L36.3208 37.0929C36.5563 36.8173 36.8386 36.5853 37.1546 36.4077C37.6146 36.1825 37.7919 36.1633 39.7421 36.1633C42.0325 36.1633 42.4158 36.2496 43.01 36.9012C43.1777 37.0833 49.4165 46.4846 56.8819 57.8025L79.5656 92.1683L88.6698 105.959L89.1346 105.657C93.5161 102.744 97.4884 99.2583 100.946 95.2925C108.192 86.9995 112.892 76.7926 114.482 65.8956C114.942 62.7331 115 61.8035 115 57.5198C115 53.236 114.942 52.3064 114.482 49.1439C111.358 27.5527 95.9867 9.40664 75.1477 2.68393C71.2529 1.44562 67.2425 0.605965 63.1781 0.177891C62.0952 0.0628906 54.6681 -0.0616927 53.7385 0.0341406L53.7337 0.029349ZM77.2752 34.8168C77.5424 34.9514 77.7803 35.1376 77.9752 35.3646C78.1702 35.5915 78.3182 35.8549 78.4108 36.1393C78.4971 36.4268 78.521 42.68 78.4971 56.7675L78.4635 76.9787L74.9033 71.5162L71.3287 66.0537V51.3625C71.3287 41.8606 71.3719 36.5227 71.439 36.2639C71.5187 35.9646 71.6584 35.6846 71.8494 35.4408C72.0405 35.1971 72.279 34.9946 72.5506 34.8456C73.0154 34.606 73.1831 34.5868 74.9465 34.5868C76.6092 34.5868 76.9015 34.6156 77.2752 34.8168Z" fill="white"/>
</g>
</g>
<defs>
<clipPath id="clip0_21_95">
<rect width="115" height="115" fill="white"/>
</clipPath>
</defs>
</svg>
