<svg width="115" height="115" viewBox="0 0 115 115" fill="none" xmlns="http://www.w3.org/2000/svg">
<path d="M101.408 59.8376C109.497 64.5787 114.934 73.3385 114.951 83.3686C114.979 98.4669 102.717 110.729 87.5663 110.753C72.4159 110.782 60.1109 98.5612 60.0831 83.463C60.0651 73.4328 65.4701 64.656 73.5452 59.8826L81.4281 73.1597C81.6249 73.4921 81.5126 73.9207 81.1927 74.139C78.2099 76.1605 76.2549 79.5709 76.2621 83.4351C76.2729 89.6298 81.323 94.6449 87.5375 94.6305C93.7538 94.6198 98.7823 89.5903 98.7716 83.3965C98.7653 79.5332 96.7995 76.1281 93.8095 74.1174C93.4906 73.9 93.3747 73.4714 93.5705 73.1381L101.408 59.8376Z" fill="#128DFF"/>
<path d="M40.858 59.6759C36.7645 57.3911 32.1531 56.1949 27.465 56.2017C12.3111 56.2017 0.03125 68.4429 0.03125 83.5411C0.03125 98.6385 12.3111 110.881 27.465 110.881C42.69 110.881 55.2717 97.9997 54.8889 82.8386H39.4466C39.0396 82.8386 38.7207 83.1827 38.7171 83.5861C38.6784 89.6263 33.6211 94.7572 27.465 94.7572C21.2461 94.7572 16.2103 89.735 16.2103 83.5402C16.2103 77.3464 21.2461 72.3241 27.465 72.3241C29.0903 72.3241 30.6383 72.6682 32.0345 73.2891C32.3786 73.44 32.7856 73.325 32.9752 73.0052L40.858 59.6759Z" fill="#8BDA67"/>
<path d="M43.075 55.3869C34.9963 50.6314 29.5742 41.8618 29.5742 31.8316C29.5742 16.7334 41.8577 4.49219 57.008 4.49219C72.1584 4.49219 84.4418 16.7334 84.4418 31.8316C84.4418 41.8618 79.0197 50.6314 70.941 55.3869L63.0787 42.1008C62.882 41.7684 62.9943 41.3398 63.3177 41.1215C66.3005 39.1036 68.2618 35.6958 68.2618 31.8316C68.2618 25.6378 63.2225 20.6155 57.0071 20.6155C50.7917 20.6155 45.7524 25.6378 45.7524 31.8325C45.7524 35.6958 47.7137 39.1036 50.6974 41.1224C51.0208 41.3398 51.1322 41.7675 50.9355 42.1017L43.075 55.3869Z" fill="#FF2A44"/>
</svg>
