<svg width="115" height="115" viewBox="0 0 115 115" fill="none" xmlns="http://www.w3.org/2000/svg">
<path fill-rule="evenodd" clip-rule="evenodd" d="M46.5699 20.6794C49.9444 20.6794 53.3189 20.7315 56.689 20.6434C57.5829 20.6201 59.1866 21.3595 59.1148 19.5015C59.06 17.9894 57.6575 18.5366 56.8076 18.5231C53.0009 18.4629 49.1816 18.3183 45.3902 18.5563C42.6922 18.7244 41.8971 17.7001 42.2358 15.2258C42.3526 14.3723 42.2403 13.4883 42.2583 12.6186C42.3769 6.82725 43.7766 4.85607 49.3937 3.42756C55.5821 1.85529 61.9152 1.9074 68.0866 3.26225C73.6344 4.48053 75.9389 8.79662 75.6586 12.7893C75.3172 17.6615 75.5813 22.576 75.5768 27.4724C75.5688 33.6294 72.3874 36.897 66.1801 36.9824C61.068 37.0525 55.9496 37.1082 50.8402 36.9662C44.7505 36.7955 40.2835 41.8537 40.253 47.5858C40.253 48.0206 40.3275 48.4698 40.2413 48.8894C39.8029 50.9944 41.5548 54.3968 39.3231 55.0221C35.927 55.9763 31.9505 55.9763 28.9551 52.9458C27.9399 51.9216 27.0846 50.7743 26.6336 49.4482C24.2266 42.382 23.8466 35.226 26.1125 28.0492C27.5248 23.5696 31.3665 20.7836 36.1255 20.7036C39.6061 20.6452 43.0875 20.6919 46.5681 20.6919L46.5699 20.6794ZM52.7709 10.6887C52.6254 8.97901 51.7062 7.73107 49.8096 7.67897C47.7352 7.62506 46.6633 8.87928 46.6606 10.9205C46.6588 12.8126 47.6893 14.0246 49.5725 14.0794C51.6416 14.1396 52.6433 12.8576 52.7709 10.6887Z" fill="#386F9F"/>
<path fill-rule="evenodd" clip-rule="evenodd" d="M72.6153 55.3186C68.8059 55.3186 64.9948 55.2853 61.1854 55.3455C60.3274 55.3563 58.8881 54.8136 58.8432 56.2808C58.7929 57.9447 60.3373 57.5116 61.3184 57.5215C65.1277 57.5691 68.9407 57.6096 72.7492 57.5036C74.706 57.4497 75.5047 57.8243 75.6511 60.1315C76.3133 70.5758 71.7807 71.4788 63.4207 73.379C58.6248 74.4688 53.4831 73.8911 48.7537 71.7725C44.8428 70.0233 42.4431 67.5023 42.7459 62.7819C43.0459 58.1226 43.0963 53.4031 42.7378 48.7483C42.3065 43.1304 45.8014 38.9984 52.5981 38.9966C57.1712 38.9957 61.7748 38.6472 66.3083 39.064C72.7905 39.6588 77.873 34.04 78.0958 27.5065C78.1048 27.29 78.0491 27.0573 78.1048 26.8561C78.6762 24.8481 76.6439 21.8634 79.3626 20.8491C83.4711 19.3173 88.1044 20.9273 90.2031 24.0448C92.849 27.9701 93.2066 32.589 93.6343 37.0991C94.097 41.9606 92.7331 46.5372 90.691 50.9225C89.3038 53.8963 86.9714 55.3338 83.7218 55.3383C80.0202 55.341 76.3196 55.3383 72.6171 55.3383C72.6153 55.3311 72.6153 55.3248 72.6153 55.3186ZM71.6234 65.0217C71.2165 63.1655 70.3791 61.8987 68.2229 61.8457C65.9804 61.7918 65.4018 63.4692 65.4134 64.9669C65.426 66.5589 65.8698 68.5175 68.2974 68.3342C70.3153 68.1797 71.2991 66.93 71.6234 65.0217Z" fill="#FFCF46"/>
<path fill-rule="evenodd" clip-rule="evenodd" d="M12.6939 103.185C12.6939 105.504 12.799 107.677 12.6445 109.83C12.578 110.759 13.6022 112.508 11.6535 112.506C9.93567 112.506 9.49454 111.138 9.54934 109.486C9.65446 106.333 9.57989 103.173 9.57989 100.017V92.831C9.57989 88.5005 10.7416 87.0343 14.8834 86.1377C18.7341 85.3003 21.76 86.5968 23.3161 89.9677C24.8722 93.3395 24.9926 96.8138 23.4356 100.244C21.9011 103.624 19.0746 104.885 15.4539 103.884C14.6291 103.659 13.7963 103.464 12.6939 103.185ZM12.6939 94.6962C12.6939 95.8911 12.8556 97.1094 12.6606 98.272C12.2096 100.959 13.9256 101.621 15.9489 102.099C17.9497 102.572 19.3216 101.721 20.124 99.9583C21.4725 97.0025 21.6989 93.9541 20.6747 90.8284C19.7655 88.0504 17.6658 87.7252 15.2149 88.0702C12.7945 88.4143 12.4666 90.0602 12.6777 92.0952C12.7675 92.9532 12.6939 93.8292 12.6939 94.6962ZM38.7369 103.041C37.0793 103.472 35.64 103.932 34.1665 104.209C30.9411 104.812 28.5531 103.041 27.7131 99.8119C26.6709 95.8156 27.5531 91.8346 27.5801 87.8474C27.5918 86.0298 29.2736 86.7387 30.4371 85.7648C30.4371 90.0324 30.4533 93.716 30.4317 97.3969C30.42 99.2459 30.898 100.766 32.6464 101.741C34.5762 102.817 36.1593 101.792 37.8393 101.101C39.0432 100.606 38.8932 99.5953 38.895 98.634C38.904 95.1553 38.8941 91.6801 38.9058 88.2014C38.9076 87.3434 38.8186 86.2949 40.0854 86.3371C41.2148 86.3739 41.7062 87.0451 41.6874 88.2759C41.6056 94.0322 41.7682 99.7966 41.5346 105.545C41.3576 109.891 38.2913 112.546 33.8799 112.741C33.2196 112.769 32.5278 112.83 32.2807 112.011C31.9043 110.749 32.9258 110.988 33.5969 110.773C38.4494 109.229 39.0837 108.308 38.7369 103.041ZM59.2428 88.1043C60.5267 87.4979 61.2643 86.9427 62.0756 86.7926C66.628 85.9508 70.1166 86.2715 70.1076 92.4034C70.1013 95.5614 70.1094 98.7203 70.1013 101.877C70.0995 102.761 70.1561 103.622 68.8381 103.699C67.4482 103.781 67.1428 102.986 67.1491 101.896C67.1652 98.8532 67.2479 95.8102 67.2452 92.7681C67.2434 90.4052 66.7609 88.3137 63.7557 88.3209C61.1197 88.3254 59.2527 90.2929 59.2392 93.008C59.2241 95.9471 59.225 98.8862 59.2419 101.825C59.2446 102.869 59.2671 103.785 57.7577 103.699C56.3984 103.618 56.5655 102.701 56.5655 101.858C56.5565 94.1311 56.5942 86.3964 56.5286 78.6645C56.517 77.3096 57.0515 76.4687 58.2536 76.4112C59.9499 76.333 59.1727 77.8163 59.1979 78.5602C59.3084 81.5889 59.2428 84.6247 59.2428 88.1043ZM73.6088 95.0322C73.4372 88.9992 76.2988 85.7783 81.4791 85.9652C84.0792 86.0604 86.0297 87.214 87.2884 89.4601C89.5121 93.433 89.2111 97.4077 86.8051 101.128C85.152 103.683 82.6094 104.888 79.5098 104.23C76.4533 103.584 74.0598 100.832 73.6268 97.6242C73.5118 96.7752 73.6088 95.8956 73.6088 95.0322ZM85.576 95.1732C85.4395 94.1203 85.4637 92.6522 85.0253 91.3423C84.426 89.5454 83.3335 88.0989 81.1045 88.0001C78.8557 87.9031 77.7336 89.2175 76.9834 91.0368C75.8055 93.893 75.8819 96.7608 77.1577 99.5657C77.977 101.372 79.242 102.695 81.4342 102.328C83.5932 101.968 84.8672 100.553 85.3083 98.4534C85.5086 97.502 85.4763 96.5047 85.576 95.1732ZM91.8714 95.9773C91.8714 94.8884 91.8507 93.8013 91.875 92.7178C91.9253 90.6289 91.2595 88.3146 94.0761 87.2472C97.3015 86.0289 100.498 85.1161 103.745 87.002C104.96 87.7081 105.407 88.9911 105.42 90.3531C105.453 94.1544 105.403 97.9575 105.454 101.759C105.472 103.085 105.123 103.748 103.633 103.712C101.999 103.673 102.344 102.559 102.354 101.67C102.393 98.6331 102.604 95.5991 102.547 92.5669C102.471 88.7485 100.376 87.1915 96.8065 88.1286C95.3259 88.5185 94.4005 89.2373 94.4732 91.0701C94.6179 94.6477 94.5065 98.2378 94.52 101.822C94.5236 102.86 94.5388 103.78 93.0402 103.693C91.6674 103.614 91.892 102.664 91.8813 101.841C91.8561 99.8855 91.8741 97.9297 91.8714 95.9773ZM52.7282 87.5105C52.5036 87.7764 52.315 88.1933 52.1173 88.1969C48.5559 88.2463 49.5442 90.9048 49.4525 92.8768C49.3654 94.7141 49.4525 96.5604 49.4265 98.4031C49.3995 100.234 49.5586 101.936 51.7867 102.422C52.4255 102.56 52.7166 102.929 52.5836 103.566C52.4372 104.271 51.8756 104.243 51.3195 104.236C48.7589 104.191 46.8606 102.381 46.7851 99.7301C46.7078 97.0222 46.8129 94.308 46.7491 91.6029C46.7159 90.3181 47.3834 88.6784 45.3116 88.169C45.0843 88.1142 45.0035 87.47 44.8552 87.1026C47.6188 86.2356 46.4724 83.852 46.8516 82.0435C47.0313 81.1873 47.8443 80.9528 48.6125 80.88C49.3897 80.8063 49.3959 81.4352 49.4211 81.9608C49.5235 84.0452 48.4445 86.8348 52.2817 86.683C52.4102 86.6785 52.5602 87.1888 52.7282 87.5105Z" fill="#386F9F"/>
</svg>
