<svg width="115" height="115" viewBox="0 0 115 115" fill="none" xmlns="http://www.w3.org/2000/svg">
<path d="M57.5 51.0312C62.1146 51.0312 65.8555 47.2904 65.8555 42.6758C65.8555 38.0612 62.1146 34.3203 57.5 34.3203C52.8854 34.3203 49.1445 38.0612 49.1445 42.6758C49.1445 47.2904 52.8854 51.0312 57.5 51.0312Z" fill="#61DAFB"/>
<path d="M57.5 73.4023C64.0586 79.7812 70.5273 83.5547 75.7383 83.5547C77.4453 83.5547 79.0625 83.1953 80.4102 82.3867C85.082 79.6914 86.7891 72.9531 85.1719 63.3398C84.9023 61.6328 84.543 59.9258 84.0938 58.1289C85.8906 57.5898 87.5078 57.0508 89.125 56.5117C98.1992 53.0078 103.23 48.1563 103.23 42.8555C103.23 37.4648 98.1992 32.6133 89.125 29.1992C87.5078 28.5703 85.8906 28.0313 84.0938 27.582C84.543 25.7852 84.9023 24.0781 85.1719 22.3711C86.6992 12.5781 84.9922 5.75 80.3203 3.05469C78.9727 2.24609 77.3555 1.88672 75.6484 1.88672C70.5273 1.88672 63.9688 5.66016 57.4102 12.0391C50.9414 5.66016 44.4727 1.88672 39.2617 1.88672C37.5547 1.88672 35.9375 2.24609 34.5898 3.05469C29.918 5.75 28.2109 12.4883 29.8281 22.1016C30.0977 23.8086 30.457 25.5156 30.9063 27.3125C29.1094 27.8516 27.4922 28.3906 25.875 28.9297C16.8008 32.4336 11.7695 37.2852 11.7695 42.5859C11.7695 47.9766 16.8008 52.8281 25.875 56.2422C27.4922 56.8711 29.1094 57.4102 30.9063 57.8594C30.457 59.6563 30.0977 61.3633 29.8281 63.0703C28.3008 72.6836 30.0078 79.5117 34.5898 82.1172C35.9375 82.9258 37.5547 83.2852 39.2617 83.2852C44.4727 83.4648 50.9414 79.6914 57.5 73.4023ZM52.4688 61.2734C54.0859 61.3633 55.793 61.3633 57.5 61.3633C59.207 61.3633 60.9141 61.3633 62.5312 61.2734C60.9141 63.4297 59.207 65.4063 57.5 67.293C55.793 65.4063 54.0859 63.4297 52.4688 61.2734ZM41.3281 52.0195C42.2266 53.5469 43.0352 54.9844 44.0234 56.4219C41.2383 56.0625 38.6328 55.6133 36.1172 55.0742C36.9258 52.6484 37.8242 50.1328 38.9023 47.6172C39.6211 49.0547 40.4297 50.582 41.3281 52.0195ZM36.1172 30.3672C38.6328 29.8281 41.2383 29.3789 44.0234 29.0195C43.125 30.457 42.2266 31.8945 41.3281 33.4219C40.4297 34.9492 39.6211 36.3867 38.9023 37.9141C37.7344 35.3086 36.8359 32.793 36.1172 30.3672ZM41.0586 42.6758C42.2266 40.25 43.4844 37.8242 44.9219 35.3984C46.2695 33.0625 47.7969 30.7266 49.3242 28.3906C52.0195 28.2109 54.7148 28.1211 57.5 28.1211C60.375 28.1211 63.0703 28.2109 65.6758 28.3906C67.293 30.7266 68.7305 33.0625 70.0781 35.3984C71.5156 37.8242 72.7734 40.25 73.9414 42.6758C72.7734 45.1016 71.5156 47.5273 70.0781 49.9531C68.7305 52.2891 67.2031 54.625 65.6758 56.9609C62.9805 57.1406 60.2852 57.2305 57.5 57.2305C54.625 57.2305 51.9297 57.1406 49.3242 56.9609C47.707 54.625 46.2695 52.2891 44.9219 49.9531C43.4844 47.5273 42.2266 45.1016 41.0586 42.6758ZM76.1875 37.8242L73.7617 33.332C72.8633 31.8047 72.0547 30.3672 71.0664 28.9297C73.8516 29.2891 76.457 29.7383 78.9727 30.2773C78.1641 32.793 77.2656 35.3086 76.1875 37.8242ZM76.1875 47.5273C77.2656 50.043 78.1641 52.5586 78.9727 54.9844C76.457 55.5234 73.8516 55.9727 71.0664 56.332C71.9648 54.8945 72.8633 53.457 73.7617 51.9297C74.5703 50.582 75.3789 49.0547 76.1875 47.5273ZM78.2539 78.7031C77.5352 79.1523 76.6367 79.332 75.6484 79.332C71.2461 79.332 65.7656 75.7383 60.375 70.3477C62.9805 67.5625 65.4961 64.418 68.0117 60.9141C72.2344 60.5547 76.2773 59.9258 80.0508 59.0273C80.5 60.6445 80.7695 62.2617 81.0391 63.8789C82.2969 71.5156 81.3086 76.9961 78.2539 78.7031ZM82.9258 31.3555C92.9883 34.2305 99.0078 38.6328 99.0078 42.6758C99.0078 46.1797 94.875 49.6836 87.5977 52.4688C86.1602 53.0078 84.543 53.5469 82.9258 53.9961C81.7578 50.3125 80.3203 46.5391 78.5234 42.6758C80.3203 38.8125 81.8477 35.0391 82.9258 31.3555ZM75.7383 6.01953C76.7266 6.01953 77.5352 6.19922 78.3437 6.64844C81.3086 8.35547 82.3867 13.7461 81.1289 21.4727C80.8594 23 80.5 24.6172 80.1406 26.3242C76.3672 25.5156 72.3242 24.8867 68.1016 24.4375C65.6758 20.9336 63.0703 17.7891 60.4648 15.0039C65.8555 9.70313 71.3359 6.01953 75.7383 6.01953ZM62.5312 24.0781C60.9141 23.9883 59.207 23.9883 57.5 23.9883C55.793 23.9883 54.0859 23.9883 52.4688 24.0781C54.0859 21.9219 55.793 19.9453 57.5 18.0586C59.207 19.9453 60.9141 22.0117 62.5312 24.0781ZM36.7461 6.64844C37.4648 6.19922 38.3633 6.01953 39.3516 6.01953C43.7539 6.01953 49.2344 9.61328 54.625 15.0039C52.0195 17.7891 49.5039 20.9336 46.9883 24.4375C42.7656 24.7969 38.7227 25.4258 34.9492 26.3242C34.5 24.707 34.2305 23.0898 33.9609 21.4727C32.7031 13.8359 33.6914 8.44531 36.7461 6.64844ZM32.0742 53.9961C22.0117 51.1211 15.9922 46.7188 15.9922 42.6758C15.9922 39.1719 20.125 35.668 27.4023 32.8828C28.8398 32.3437 30.457 31.8047 32.0742 31.3555C33.2422 35.0391 34.6797 38.8125 36.4766 42.6758C34.6797 46.5391 33.1523 50.4023 32.0742 53.9961ZM33.9609 63.8789C34.2305 62.3516 34.5898 60.7344 34.9492 59.0273C38.7227 59.8359 42.7656 60.4648 46.9883 60.9141C49.4141 64.418 52.0195 67.5625 54.625 70.3477C49.2344 75.6484 43.7539 79.332 39.3516 79.332C38.3633 79.332 37.5547 79.1523 36.7461 78.7031C33.6914 76.9961 32.7031 71.5156 33.9609 63.8789ZM30.1875 100.895C32.1641 98.4688 32.2539 95.7734 31.1758 93.0781C30.0977 90.3828 27.8516 89.125 25.0664 89.0352C21.7422 88.9453 18.3281 89.0352 15.0039 89.0352H14.375V112.305H17.0703V103.5H21.293C21.832 103.5 22.2812 103.68 22.5508 104.129L27.9414 112.484C28.0313 112.664 28.3008 112.934 28.4805 112.934H31.9844C29.8281 109.609 27.7617 106.465 25.6055 103.23C27.4922 102.961 29.1094 102.332 30.1875 100.895ZM17.0703 100.715V91.8203H18.0586C20.125 91.8203 22.2813 91.7305 24.3477 91.9102C26.7734 92 28.4805 93.8867 28.4805 96.3125C28.4805 98.7383 26.5039 100.625 24.0781 100.715C21.9219 100.805 19.7656 100.715 17.0703 100.715ZM51.8398 101.883C50.4023 95.5938 44.6523 93.9766 40.25 95.9531C36.8359 97.4805 35.3086 100.445 35.2188 104.129C35.1289 106.914 35.9375 109.43 38.0938 111.316C40.5195 113.473 43.4844 113.742 46.5391 113.203C48.2461 112.844 49.7734 112.035 50.9414 110.777C50.4922 110.148 50.043 109.52 49.5937 108.98C47.0781 111.137 44.293 111.855 41.2383 110.418C39.2617 109.43 38.2734 107.004 38.0938 105.207H52.0195V104.039C52.1094 103.23 52.0195 102.512 51.8398 101.883ZM38.2734 103.32C38.0039 100.625 40.6992 97.75 43.6641 97.75C47.0781 97.6602 49.2344 99.7266 49.3242 103.32H38.2734ZM65.8555 95.5039C64.5078 95.2344 63.0703 95.1445 61.7227 95.2344C59.5664 95.4141 57.6797 96.4023 56.1523 98.0195C56.6016 98.6484 56.9609 99.2773 57.5 99.9961C57.6797 99.8164 57.8594 99.6367 58.0391 99.5469C59.4766 98.1992 61.1836 97.4805 63.25 97.6602C64.8672 97.75 66.3945 98.2891 66.8438 99.9062C67.2031 101.164 67.1133 102.512 67.2031 103.859C66.9336 103.859 66.8438 103.77 66.7539 103.68C64.5977 101.883 62.1719 101.523 59.5664 102.152C57.1406 102.781 55.6133 104.668 55.4336 107.094C55.2539 109.879 56.5117 111.945 58.9375 112.934C60.4648 113.562 62.1719 113.563 63.7891 113.203C65.0469 112.934 65.5859 112.215 67.3828 111.227V112.395H69.8984C69.8984 108.801 69.9883 104.398 69.8984 100.266C69.8984 97.6602 68.3711 96.043 65.8555 95.5039ZM67.1133 106.824C67.0234 107.094 67.1133 107.363 67.1133 107.633C67.1133 109.52 66.6641 110.148 64.8672 110.867C63.6094 111.316 62.2617 111.496 60.9141 111.047C59.3867 110.598 58.3086 109.25 58.3086 107.723C58.2188 106.195 59.207 104.668 60.7344 104.219C62.8008 103.5 64.6875 103.949 66.3945 105.207C66.9336 105.656 67.293 106.105 67.1133 106.824ZM81.1289 97.9297C83.4648 97.2109 85.6211 97.6602 87.2383 99.6367L87.5078 99.8164C88.1367 99.2773 88.6758 98.7383 89.3945 98.1094C89.125 97.8398 89.0352 97.6602 88.8555 97.3906C86.25 94.6055 81.1289 94.2461 77.9844 96.4922C73.582 99.7266 73.6719 106.016 75.8281 109.34C77.8945 112.484 80.8594 113.563 84.3633 113.113C86.4297 112.844 88.1367 111.855 89.4844 110.148C88.8555 109.609 88.2266 109.07 87.5977 108.441C87.418 108.621 87.3281 108.711 87.2383 108.891C84.8125 111.586 80.7695 111.316 78.6133 108.441C77.3555 106.734 77.0859 104.758 77.4453 102.781C77.625 100.535 78.793 98.7383 81.1289 97.9297ZM99.8164 110.148C99.6367 110.238 99.5469 110.328 99.5469 110.328C98.8281 110.867 98.1094 110.957 97.3008 110.687C96.4922 110.328 96.4023 109.609 96.3125 108.891V98.6484C96.3125 98.4688 96.3125 98.8281 96.4023 97.9297H99.8164V95.2344H96.2227V90.7422H93.5273V95.5938H91.1914C91.0117 95.5938 90.7422 95.7734 90.7422 95.9531C90.6523 96.582 90.7422 97.0313 90.7422 97.9297H93.6172V109.43C93.6172 110.867 93.9766 112.125 95.2344 112.844C96.582 113.652 99.1875 113.473 100.355 112.484C100.535 112.395 100.625 112.035 100.625 111.945C100.355 111.406 100.086 110.777 99.8164 110.148Z" fill="#61DAFB"/>
</svg>
