<svg width="115" height="115" viewBox="0 0 115 115" fill="none" xmlns="http://www.w3.org/2000/svg">
<g clip-path="url(#clip0_21_110)">
<path d="M8.98438 0H106.016C110.978 0 115 4.0223 115 8.98438V106.016C115 110.978 110.978 115 106.016 115H8.98438C4.0223 115 0 110.978 0 106.016V8.98438C0 4.0223 4.0223 0 8.98438 0Z" fill="#3178C6"/>
<path d="M67.6155 90.0571V102.465C69.6334 103.499 72.0201 104.274 74.7752 104.791C77.5302 105.308 80.434 105.566 83.4869 105.566C86.4616 105.566 89.2881 105.282 91.9654 104.713C94.6428 104.145 96.9908 103.208 99.0083 101.903C101.026 100.597 102.624 98.891 103.801 96.7842C104.978 94.6778 105.566 92.0737 105.566 88.9718C105.566 86.723 105.23 84.7519 104.557 83.0587C103.892 81.3771 102.903 79.8424 101.647 78.5419C100.38 77.2234 98.8596 76.0411 97.0879 74.9939C95.3157 73.9472 93.3171 72.9585 91.0921 72.0282C89.4624 71.3557 88.0011 70.7034 86.7073 70.07C85.414 69.4366 84.3143 68.7907 83.4091 68.1312C82.5035 67.4722 81.805 66.7741 81.3135 66.0374C80.8221 65.3007 80.5764 64.4674 80.5764 63.5366C80.5764 62.6835 80.796 61.9149 81.2358 61.2299C81.6756 60.5448 82.2969 59.9568 83.0987 59.4658C83.9006 58.9743 84.8835 58.5934 86.0479 58.3216C87.2118 58.0503 88.5055 57.9146 89.9282 57.9146C90.9632 57.9146 92.0562 57.9923 93.2071 58.1473C94.3584 58.3023 95.516 58.5413 96.6804 58.8647C97.8411 59.1865 98.976 59.5948 100.076 60.0862C101.142 60.5586 102.162 61.1297 103.122 61.7918V50.1988C101.233 49.4752 99.17 48.9388 96.9324 48.5897C94.6949 48.2407 92.1271 48.0664 89.2297 48.0664C86.2805 48.0664 83.4869 48.3831 80.8481 49.0165C78.2094 49.6495 75.8874 50.6382 73.8826 51.9822C71.8777 53.3268 70.2933 55.0392 69.1289 57.12C67.965 59.2007 67.3828 61.6885 67.3828 64.5837C67.3828 68.2799 68.4497 71.4334 70.5844 74.0443C72.7186 76.6547 75.9584 78.8648 80.3046 80.6743C81.909 81.3277 83.5003 82.0129 85.0775 82.7295C86.5523 83.4015 87.8263 84.0991 88.8999 84.8228C89.9736 85.5465 90.8208 86.3349 91.4416 87.188C92.0624 88.041 92.3729 89.0104 92.3729 90.0962C92.378 90.8776 92.1772 91.6466 91.7907 92.3257C91.403 93.0103 90.8141 93.6051 90.0252 94.1091C89.2364 94.6131 88.2531 95.0071 87.0761 95.2914C85.8992 95.5758 84.5214 95.7182 82.9433 95.7182C80.2529 95.7182 77.5886 95.2465 74.9499 94.3027C72.3107 93.3593 69.8661 91.9443 67.6155 90.0571ZM46.9353 59.181H62.8906V48.9648H18.418V59.181H34.2956V104.668H46.9353V59.181Z" fill="white"/>
</g>
<defs>
<clipPath id="clip0_21_110">
<rect width="115" height="115" fill="white"/>
</clipPath>
</defs>
</svg>
