<svg width="115" height="115" viewBox="0 0 115 115" fill="none" xmlns="http://www.w3.org/2000/svg">
<g clip-path="url(#clip0_21_105)">
<path d="M57.5039 23.0017C42.1703 23.0017 32.5902 30.6654 28.7539 45.999C34.5021 38.3344 41.2125 35.4603 48.8771 37.3767C53.2534 38.4674 56.3809 41.6407 59.8443 45.1572C65.4811 50.8775 72.0056 57.4999 86.2539 57.4999C101.587 57.4999 111.168 49.8353 115.004 34.4981C109.255 42.1672 102.545 45.0413 94.8798 43.1249C90.5044 42.0333 87.3806 38.8609 83.9126 35.3444C78.2794 29.6241 71.7567 23.0017 57.5039 23.0017ZM28.7539 57.4999C13.4212 57.4999 3.84023 65.1645 0.00390625 80.5017C5.75211 72.8326 12.4616 69.9586 20.1271 71.8749C24.5034 72.9665 27.6309 76.1389 31.0943 79.6554C36.7311 85.3757 43.2556 91.9981 57.5039 91.9981C72.8366 91.9981 82.4176 84.3345 86.2539 69.0008C80.5048 76.6654 73.7953 79.5395 66.1298 77.6231C61.7544 76.5324 58.6305 73.3591 55.1626 69.8427C49.5294 64.1223 43.0067 57.4999 28.7539 57.4999Z" fill="#38BDF8"/>
</g>
<defs>
<clipPath id="clip0_21_105">
<rect width="115" height="115" fill="white"/>
</clipPath>
</defs>
</svg>
